<?xml version="1.0" encoding="utf-8"?>
<!-- Generator: Adobe Illustrator 16.0.0, SVG Export Plug-In . SVG Version: 6.00 Build 0)  -->
<!DOCTYPE svg PUBLIC "-//W3C//DTD SVG 1.1//EN" "http://www.w3.org/Graphics/SVG/1.1/DTD/svg11.dtd">
<svg version="1.1" id="Layer_1" xmlns="http://www.w3.org/2000/svg" xmlns:xlink="http://www.w3.org/1999/xlink" x="0px" y="0px"
	 width="37.8px" height="40.8px" viewBox="0 0 37.8 40.8" enable-background="new 0 0 37.8 40.8" xml:space="preserve">
<polygon fill-rule="evenodd" clip-rule="evenodd" fill="#333333" points="22,5.8 33.3,11.8 28.6,15.8 19,10.5 "/>
<path fill-rule="evenodd" clip-rule="evenodd" fill="#FFFFFF" d="M29.5,11.8c0.2,0.5-0.2,1-0.7,1.4c-0.5,0.4-1.3,0-1.5-0.5
	c-0.3-0.6,0.5-1.1,0.8-1.2C28.2,11.5,29.2,11.2,29.5,11.8z M23.9,8.7c0.3,0.6-0.4,1.2-0.5,1.2c-0.2,0.1-1.2,0.2-1.4-0.2
	c-0.3-0.6,0.5-1.1,0.7-1.2C23.3,8.2,23.8,8.4,23.9,8.7z M23.3,6.8c2.3,0.4,1.8,2.8,3.6,3.2c0.5,0.2,3.8-0.6,4.8,1.9
	c0.4,1.1-3.6,5.6-6.9,0.8c-1-1.5-3.5-0.3-4.4-2.2C19.8,9.1,21.9,6.6,23.3,6.8z M25.4,0c0.7,4.1-1.1,3.9,3.3,7
	c4.5,2.4,4.7,0.5,9.1-0.4c-4.8,9-11.5,8.9-10.4,12.4c0.5,1.5,4.3-0.1,6.8-0.3s2.6,5.3,0.2,5.1c-2.3-0.1-7.6-1.1-9.9,2.3
	c-1.6,2.3-2.2,3.5-3.1,6.7c0.1,3.5,6.2,5,2.7,7.6c-1.7,1.3-3.9-0.6-6.9-2.5c-1.5-1,0.2-2.7-1.9-2.1c-4,1-3.1,4.9-5.1,4.9
	c-2,0-4.5-2-4-2.9c0.8-1.4,3.5,1.9,4.9-1.2c0.6-1.4,1.2-1.1,0.7-2c-1.1-2.5-7-0.6-9.9-1.8c-2.4-1-2.5-4.8-0.8-5.5
	c1.4-0.6,5.4,1.8,6.3,0.6c8.4-9.9,3.6-10.9,2.9-15.5c-0.6-3.5,1.2-8,4.9-7.9c2.9,0.1-1.9,6.2,1.3,10.3c0.8-0.5,0.9-2.3,1.4-3.5
	C19,8.6,23.5,2.6,25.4,0z"/>
</svg>
