<?xml version="1.0" encoding="utf-8"?>
<!-- Generator: Adobe Illustrator 16.0.0, SVG Export Plug-In . SVG Version: 6.00 Build 0)  -->
<!DOCTYPE svg PUBLIC "-//W3C//DTD SVG 1.1//EN" "http://www.w3.org/Graphics/SVG/1.1/DTD/svg11.dtd">
<svg version="1.1" id="Layer_1" xmlns="http://www.w3.org/2000/svg" xmlns:xlink="http://www.w3.org/1999/xlink" x="0px" y="0px"
	 width="690.2px" height="687px" viewBox="0 0 690.2 687" enable-background="new 0 0 690.2 687" xml:space="preserve">
<path fill-rule="evenodd" clip-rule="evenodd" fill="#FFFFFF" stroke="#FFFFFF" stroke-linecap="round" stroke-linejoin="round" stroke-miterlimit="10" d="
	M3.7,526.5v40l29,17l18,19h32l14-14h38l47-28l23-42c0,0,50-15,96,65l-3,57c0,0-5,13-5,15s8,22,8,22l32,3l73,6l26-28l1-23l-11-6
	l-15,1l-1-23l-12-33l45-111l29-11l47-35h46c0,0,19-14,39,10l8,10l30-3l29-30l23-11l-1-24l-28-8l-8-9l1-18l-14-6h-19l-26,15l-26-2
	l-36-8l-23-18l24-36l35-6l13-19l-4-32l32-19l1-22l-8-23c0,0,8-19,28-8h9l33-27l-1-17c0,0,7-22,5-23s-21-3-21-3l-11,7l-3,11l-24,17
	l-26,2l-23,17l-14-2l-14-10l-7-13l5-19l-7-17l-34-18l-1-27l-18-6l-16-22l-5,23l-9,14l1,34l7,7l-1,9l-32,49l-3,30l-10,15l-13,8
	c0,0-12,50-27,10l-22-28l7-20l-3-33l7-6l-1-23c0,0,13-8,18-20c4-5-25-23-32-26s-18,10-18,10l-27-20l-14,1l-13,14l-2,24l-9,15l-1,24
	l18,30l2,79c0,0-22,56-58,80l-68-2l-34,22l-8,8l-10,6l-30-4l-29-26c0,0-13-7-18,0c-14,25-8,34-21,37c-4.6,1.1-6,29.5-1,34
	c4.4,4,7,7,14,11l1,25l8,16c0,0,52,17,65-5c0,0,13-19,20-19s26,8,35,33l-1,19c0,0,25,88-71,73l-19-15l-22-5"/>
<polygon fill-rule="evenodd" clip-rule="evenodd" stroke="#FFFFFF" stroke-linecap="round" stroke-linejoin="round" stroke-miterlimit="10" points="
	452.7,92.5 421.7,130.5 419.7,167.5 436.7,176.5 467.7,174.5 476.7,179.5 479.7,204.5 488.7,213.5 520.7,210.5 543.7,221.5 
	553.7,245.5 581.7,257.5 585.7,224.5 609.7,203.5 590.7,174.5 566.7,154.5 530.7,141.5 499.7,113.5 490.7,94.5 "/>
<path fill-rule="evenodd" clip-rule="evenodd" fill="#FFFFFF" stroke="#FFFFFF" stroke-linecap="round" stroke-linejoin="round" stroke-miterlimit="10" d="
	M457.7,140c0-10.2,8.3-18.5,18.5-18.5c10.2,0,18.5,8.3,18.5,18.5c0,10.2-8.3,18.5-18.5,18.5C465.9,158.5,457.7,150.2,457.7,140z"/>
<circle fill-rule="evenodd" clip-rule="evenodd" fill="#FFFFFF" stroke="#FFFFFF" stroke-linecap="round" stroke-linejoin="round" stroke-miterlimit="10" cx="553.7" cy="189.5" r="17"/>
</svg>
